<mxfile host="embed.diagrams.net" modified="2023-10-28T20:37:01.644Z" agent="Mozilla/5.0 (Windows NT 10.0; Win64; x64; rv:109.0) Gecko/20100101 Firefox/118.0" etag="qL_0P04EptdL5VHoOtx4" version="22.0.8" type="embed">
  <diagram id="wYh7Bo-9NNQNr5niJzds" name="Page-1">
    <mxGraphModel grid="1" page="1" gridSize="10" guides="1" tooltips="1" connect="1" arrows="1" fold="1" pageScale="1" pageWidth="827" pageHeight="1169" math="0" shadow="0">
      <root>
        <mxCell id="0" />
        <mxCell id="1" parent="0" />
        <mxCell id="sfe3M8wIAQeGoFs6e5uv-1" value="Client passe commande" style="ellipse;whiteSpace=wrap;html=1;" vertex="1" parent="1">
          <mxGeometry x="354" y="20" width="120" height="80" as="geometry" />
        </mxCell>
        <mxCell id="sfe3M8wIAQeGoFs6e5uv-2" value="" style="triangle;whiteSpace=wrap;html=1;rotation=90;" vertex="1" parent="1">
          <mxGeometry x="384" y="160" width="60" height="80" as="geometry" />
        </mxCell>
        <mxCell id="sfe3M8wIAQeGoFs6e5uv-3" value="" style="endArrow=classic;html=1;rounded=0;exitX=0.5;exitY=1;exitDx=0;exitDy=0;entryX=0;entryY=0.5;entryDx=0;entryDy=0;" edge="1" parent="1" source="sfe3M8wIAQeGoFs6e5uv-1" target="sfe3M8wIAQeGoFs6e5uv-2">
          <mxGeometry width="50" height="50" relative="1" as="geometry">
            <mxPoint x="270" y="320" as="sourcePoint" />
            <mxPoint x="320" y="270" as="targetPoint" />
          </mxGeometry>
        </mxCell>
        <mxCell id="sfe3M8wIAQeGoFs6e5uv-17" value="Création comande possible ?" style="shape=table;startSize=30;container=1;collapsible=0;childLayout=tableLayout;fixedRows=1;rowLines=0;fontStyle=0;strokeColor=default;fontSize=16;" vertex="1" parent="1">
          <mxGeometry x="237" y="230" width="350" height="120" as="geometry" />
        </mxCell>
        <mxCell id="sfe3M8wIAQeGoFs6e5uv-18" value="" style="shape=tableRow;horizontal=0;startSize=0;swimlaneHead=0;swimlaneBody=0;top=0;left=0;bottom=0;right=0;collapsible=0;dropTarget=0;fillColor=none;points=[[0,0.5],[1,0.5]];portConstraint=eastwest;strokeColor=inherit;fontSize=16;" vertex="1" parent="sfe3M8wIAQeGoFs6e5uv-17">
          <mxGeometry y="30" width="350" height="30" as="geometry" />
        </mxCell>
        <mxCell id="sfe3M8wIAQeGoFs6e5uv-19" value="" style="shape=partialRectangle;html=1;whiteSpace=wrap;connectable=0;fillColor=none;top=0;left=0;bottom=0;right=0;overflow=hidden;pointerEvents=1;strokeColor=inherit;fontSize=16;" vertex="1" parent="sfe3M8wIAQeGoFs6e5uv-18">
          <mxGeometry width="175" height="30" as="geometry">
            <mxRectangle width="175" height="30" as="alternateBounds" />
          </mxGeometry>
        </mxCell>
        <mxCell id="sfe3M8wIAQeGoFs6e5uv-20" value="" style="shape=partialRectangle;html=1;whiteSpace=wrap;connectable=0;fillColor=none;top=0;left=0;bottom=0;right=0;align=left;spacingLeft=6;overflow=hidden;strokeColor=inherit;fontSize=16;" vertex="1" parent="sfe3M8wIAQeGoFs6e5uv-18">
          <mxGeometry x="175" width="175" height="30" as="geometry">
            <mxRectangle width="175" height="30" as="alternateBounds" />
          </mxGeometry>
        </mxCell>
        <mxCell id="sfe3M8wIAQeGoFs6e5uv-21" value="" style="shape=tableRow;horizontal=0;startSize=0;swimlaneHead=0;swimlaneBody=0;top=0;left=0;bottom=0;right=0;collapsible=0;dropTarget=0;fillColor=none;points=[[0,0.5],[1,0.5]];portConstraint=eastwest;strokeColor=inherit;fontSize=16;" vertex="1" parent="sfe3M8wIAQeGoFs6e5uv-17">
          <mxGeometry y="60" width="350" height="30" as="geometry" />
        </mxCell>
        <mxCell id="sfe3M8wIAQeGoFs6e5uv-22" value="Oui" style="shape=partialRectangle;html=1;whiteSpace=wrap;connectable=0;fillColor=none;top=0;left=0;bottom=0;right=0;overflow=hidden;strokeColor=inherit;fontSize=16;" vertex="1" parent="sfe3M8wIAQeGoFs6e5uv-21">
          <mxGeometry width="175" height="30" as="geometry">
            <mxRectangle width="175" height="30" as="alternateBounds" />
          </mxGeometry>
        </mxCell>
        <mxCell id="sfe3M8wIAQeGoFs6e5uv-23" value="&lt;span style=&quot;white-space: pre;&quot;&gt;&#x9;&lt;/span&gt;&lt;span style=&quot;white-space: pre;&quot;&gt;&#x9;&lt;/span&gt;Non" style="shape=partialRectangle;html=1;whiteSpace=wrap;connectable=0;fillColor=none;top=0;left=0;bottom=0;right=0;align=left;spacingLeft=6;overflow=hidden;strokeColor=inherit;fontSize=16;" vertex="1" parent="sfe3M8wIAQeGoFs6e5uv-21">
          <mxGeometry x="175" width="175" height="30" as="geometry">
            <mxRectangle width="175" height="30" as="alternateBounds" />
          </mxGeometry>
        </mxCell>
        <mxCell id="sfe3M8wIAQeGoFs6e5uv-24" value="" style="shape=tableRow;horizontal=0;startSize=0;swimlaneHead=0;swimlaneBody=0;top=0;left=0;bottom=0;right=0;collapsible=0;dropTarget=0;fillColor=none;points=[[0,0.5],[1,0.5]];portConstraint=eastwest;strokeColor=inherit;fontSize=16;" vertex="1" parent="sfe3M8wIAQeGoFs6e5uv-17">
          <mxGeometry y="90" width="350" height="30" as="geometry" />
        </mxCell>
        <mxCell id="sfe3M8wIAQeGoFs6e5uv-25" value="" style="shape=partialRectangle;html=1;whiteSpace=wrap;connectable=0;fillColor=none;top=0;left=0;bottom=0;right=0;overflow=hidden;strokeColor=inherit;fontSize=16;" vertex="1" parent="sfe3M8wIAQeGoFs6e5uv-24">
          <mxGeometry width="175" height="30" as="geometry">
            <mxRectangle width="175" height="30" as="alternateBounds" />
          </mxGeometry>
        </mxCell>
        <mxCell id="sfe3M8wIAQeGoFs6e5uv-26" value="" style="shape=partialRectangle;html=1;whiteSpace=wrap;connectable=0;fillColor=none;top=0;left=0;bottom=0;right=0;align=left;spacingLeft=6;overflow=hidden;strokeColor=inherit;fontSize=16;" vertex="1" parent="sfe3M8wIAQeGoFs6e5uv-24">
          <mxGeometry x="175" width="175" height="30" as="geometry">
            <mxRectangle width="175" height="30" as="alternateBounds" />
          </mxGeometry>
        </mxCell>
        <mxCell id="sfe3M8wIAQeGoFs6e5uv-27" value="Refus" style="ellipse;whiteSpace=wrap;html=1;" vertex="1" parent="1">
          <mxGeometry x="460" y="400" width="120" height="80" as="geometry" />
        </mxCell>
        <mxCell id="sfe3M8wIAQeGoFs6e5uv-28" value="Procédure de paiement" style="ellipse;whiteSpace=wrap;html=1;" vertex="1" parent="1">
          <mxGeometry x="264" y="400" width="120" height="80" as="geometry" />
        </mxCell>
        <mxCell id="sfe3M8wIAQeGoFs6e5uv-29" value="" style="endArrow=classic;html=1;rounded=0;exitX=0.251;exitY=0.933;exitDx=0;exitDy=0;entryX=0.5;entryY=0;entryDx=0;entryDy=0;exitPerimeter=0;" edge="1" parent="1" source="sfe3M8wIAQeGoFs6e5uv-24" target="sfe3M8wIAQeGoFs6e5uv-28">
          <mxGeometry width="50" height="50" relative="1" as="geometry">
            <mxPoint x="360" y="330" as="sourcePoint" />
            <mxPoint x="360" y="400" as="targetPoint" />
          </mxGeometry>
        </mxCell>
        <mxCell id="sfe3M8wIAQeGoFs6e5uv-30" value="" style="endArrow=classic;html=1;rounded=0;exitX=0.811;exitY=0.933;exitDx=0;exitDy=0;entryX=0.5;entryY=0;entryDx=0;entryDy=0;exitPerimeter=0;" edge="1" parent="1" source="sfe3M8wIAQeGoFs6e5uv-24" target="sfe3M8wIAQeGoFs6e5uv-27">
          <mxGeometry width="50" height="50" relative="1" as="geometry">
            <mxPoint x="520.5" y="340" as="sourcePoint" />
            <mxPoint x="519.5" y="392" as="targetPoint" />
            <Array as="points">
              <mxPoint x="520" y="370" />
            </Array>
          </mxGeometry>
        </mxCell>
        <mxCell id="sfe3M8wIAQeGoFs6e5uv-38" value="" style="triangle;whiteSpace=wrap;html=1;rotation=90;" vertex="1" parent="1">
          <mxGeometry x="287" y="540" width="60" height="80" as="geometry" />
        </mxCell>
        <mxCell id="sfe3M8wIAQeGoFs6e5uv-39" value="Paiement possible ?" style="shape=table;startSize=30;container=1;collapsible=0;childLayout=tableLayout;fixedRows=1;rowLines=0;fontStyle=0;strokeColor=default;fontSize=16;" vertex="1" parent="1">
          <mxGeometry x="142" y="610" width="350" height="120" as="geometry" />
        </mxCell>
        <mxCell id="sfe3M8wIAQeGoFs6e5uv-40" value="" style="shape=tableRow;horizontal=0;startSize=0;swimlaneHead=0;swimlaneBody=0;top=0;left=0;bottom=0;right=0;collapsible=0;dropTarget=0;fillColor=none;points=[[0,0.5],[1,0.5]];portConstraint=eastwest;strokeColor=inherit;fontSize=16;" vertex="1" parent="sfe3M8wIAQeGoFs6e5uv-39">
          <mxGeometry y="30" width="350" height="30" as="geometry" />
        </mxCell>
        <mxCell id="sfe3M8wIAQeGoFs6e5uv-41" value="" style="shape=partialRectangle;html=1;whiteSpace=wrap;connectable=0;fillColor=none;top=0;left=0;bottom=0;right=0;overflow=hidden;pointerEvents=1;strokeColor=inherit;fontSize=16;" vertex="1" parent="sfe3M8wIAQeGoFs6e5uv-40">
          <mxGeometry width="175" height="30" as="geometry">
            <mxRectangle width="175" height="30" as="alternateBounds" />
          </mxGeometry>
        </mxCell>
        <mxCell id="sfe3M8wIAQeGoFs6e5uv-42" value="" style="shape=partialRectangle;html=1;whiteSpace=wrap;connectable=0;fillColor=none;top=0;left=0;bottom=0;right=0;align=left;spacingLeft=6;overflow=hidden;strokeColor=inherit;fontSize=16;" vertex="1" parent="sfe3M8wIAQeGoFs6e5uv-40">
          <mxGeometry x="175" width="175" height="30" as="geometry">
            <mxRectangle width="175" height="30" as="alternateBounds" />
          </mxGeometry>
        </mxCell>
        <mxCell id="sfe3M8wIAQeGoFs6e5uv-43" value="" style="shape=tableRow;horizontal=0;startSize=0;swimlaneHead=0;swimlaneBody=0;top=0;left=0;bottom=0;right=0;collapsible=0;dropTarget=0;fillColor=none;points=[[0,0.5],[1,0.5]];portConstraint=eastwest;strokeColor=inherit;fontSize=16;" vertex="1" parent="sfe3M8wIAQeGoFs6e5uv-39">
          <mxGeometry y="60" width="350" height="30" as="geometry" />
        </mxCell>
        <mxCell id="sfe3M8wIAQeGoFs6e5uv-44" value="Oui" style="shape=partialRectangle;html=1;whiteSpace=wrap;connectable=0;fillColor=none;top=0;left=0;bottom=0;right=0;overflow=hidden;strokeColor=inherit;fontSize=16;" vertex="1" parent="sfe3M8wIAQeGoFs6e5uv-43">
          <mxGeometry width="175" height="30" as="geometry">
            <mxRectangle width="175" height="30" as="alternateBounds" />
          </mxGeometry>
        </mxCell>
        <mxCell id="sfe3M8wIAQeGoFs6e5uv-45" value="&lt;span style=&quot;white-space: pre;&quot;&gt;&#x9;&lt;/span&gt;&lt;span style=&quot;white-space: pre;&quot;&gt;&#x9;&lt;/span&gt;Non" style="shape=partialRectangle;html=1;whiteSpace=wrap;connectable=0;fillColor=none;top=0;left=0;bottom=0;right=0;align=left;spacingLeft=6;overflow=hidden;strokeColor=inherit;fontSize=16;" vertex="1" parent="sfe3M8wIAQeGoFs6e5uv-43">
          <mxGeometry x="175" width="175" height="30" as="geometry">
            <mxRectangle width="175" height="30" as="alternateBounds" />
          </mxGeometry>
        </mxCell>
        <mxCell id="sfe3M8wIAQeGoFs6e5uv-46" value="" style="shape=tableRow;horizontal=0;startSize=0;swimlaneHead=0;swimlaneBody=0;top=0;left=0;bottom=0;right=0;collapsible=0;dropTarget=0;fillColor=none;points=[[0,0.5],[1,0.5]];portConstraint=eastwest;strokeColor=inherit;fontSize=16;" vertex="1" parent="sfe3M8wIAQeGoFs6e5uv-39">
          <mxGeometry y="90" width="350" height="30" as="geometry" />
        </mxCell>
        <mxCell id="sfe3M8wIAQeGoFs6e5uv-47" value="" style="shape=partialRectangle;html=1;whiteSpace=wrap;connectable=0;fillColor=none;top=0;left=0;bottom=0;right=0;overflow=hidden;strokeColor=inherit;fontSize=16;" vertex="1" parent="sfe3M8wIAQeGoFs6e5uv-46">
          <mxGeometry width="175" height="30" as="geometry">
            <mxRectangle width="175" height="30" as="alternateBounds" />
          </mxGeometry>
        </mxCell>
        <mxCell id="sfe3M8wIAQeGoFs6e5uv-48" value="" style="shape=partialRectangle;html=1;whiteSpace=wrap;connectable=0;fillColor=none;top=0;left=0;bottom=0;right=0;align=left;spacingLeft=6;overflow=hidden;strokeColor=inherit;fontSize=16;" vertex="1" parent="sfe3M8wIAQeGoFs6e5uv-46">
          <mxGeometry x="175" width="175" height="30" as="geometry">
            <mxRectangle width="175" height="30" as="alternateBounds" />
          </mxGeometry>
        </mxCell>
        <mxCell id="sfe3M8wIAQeGoFs6e5uv-49" value="" style="endArrow=classic;html=1;rounded=0;exitX=0.5;exitY=1;exitDx=0;exitDy=0;entryX=0;entryY=0.5;entryDx=0;entryDy=0;" edge="1" parent="1" source="sfe3M8wIAQeGoFs6e5uv-28" target="sfe3M8wIAQeGoFs6e5uv-38">
          <mxGeometry width="50" height="50" relative="1" as="geometry">
            <mxPoint x="317.5" y="488" as="sourcePoint" />
            <mxPoint x="316.5" y="540" as="targetPoint" />
          </mxGeometry>
        </mxCell>
        <mxCell id="sfe3M8wIAQeGoFs6e5uv-50" value="Afficher paiement refuser" style="ellipse;whiteSpace=wrap;html=1;" vertex="1" parent="1">
          <mxGeometry x="372" y="790" width="120" height="80" as="geometry" />
        </mxCell>
        <mxCell id="sfe3M8wIAQeGoFs6e5uv-51" value="" style="endArrow=classic;html=1;rounded=0;exitX=0.78;exitY=1.112;exitDx=0;exitDy=0;exitPerimeter=0;" edge="1" parent="1" source="sfe3M8wIAQeGoFs6e5uv-46" target="sfe3M8wIAQeGoFs6e5uv-50">
          <mxGeometry width="50" height="50" relative="1" as="geometry">
            <mxPoint x="299.99999999999983" y="849.9999999999998" as="sourcePoint" />
            <mxPoint x="305.93182562602243" y="907.8730752799831" as="targetPoint" />
          </mxGeometry>
        </mxCell>
        <mxCell id="sfe3M8wIAQeGoFs6e5uv-52" value="&lt;div&gt;Paiement accepter et&lt;/div&gt;&lt;div&gt;création de numéro de commande&lt;br&gt;&lt;/div&gt;" style="ellipse;whiteSpace=wrap;html=1;" vertex="1" parent="1">
          <mxGeometry x="147" y="790" width="140" height="80" as="geometry" />
        </mxCell>
        <mxCell id="sfe3M8wIAQeGoFs6e5uv-53" value="" style="endArrow=classic;html=1;rounded=0;exitX=0.238;exitY=1.151;exitDx=0;exitDy=0;exitPerimeter=0;" edge="1" parent="1" source="sfe3M8wIAQeGoFs6e5uv-46" target="sfe3M8wIAQeGoFs6e5uv-52">
          <mxGeometry width="50" height="50" relative="1" as="geometry">
            <mxPoint x="320.5" y="770" as="sourcePoint" />
            <mxPoint x="313.5" y="840" as="targetPoint" />
          </mxGeometry>
        </mxCell>
        <mxCell id="sfe3M8wIAQeGoFs6e5uv-54" value="" style="triangle;whiteSpace=wrap;html=1;rotation=90;" vertex="1" parent="1">
          <mxGeometry x="215" y="935" width="60" height="80" as="geometry" />
        </mxCell>
        <mxCell id="sfe3M8wIAQeGoFs6e5uv-55" value="Commande prête ?" style="shape=table;startSize=30;container=1;collapsible=0;childLayout=tableLayout;fixedRows=1;rowLines=0;fontStyle=0;strokeColor=default;fontSize=16;" vertex="1" parent="1">
          <mxGeometry x="70" y="1005" width="350" height="120" as="geometry" />
        </mxCell>
        <mxCell id="sfe3M8wIAQeGoFs6e5uv-56" value="" style="shape=tableRow;horizontal=0;startSize=0;swimlaneHead=0;swimlaneBody=0;top=0;left=0;bottom=0;right=0;collapsible=0;dropTarget=0;fillColor=none;points=[[0,0.5],[1,0.5]];portConstraint=eastwest;strokeColor=inherit;fontSize=16;" vertex="1" parent="sfe3M8wIAQeGoFs6e5uv-55">
          <mxGeometry y="30" width="350" height="30" as="geometry" />
        </mxCell>
        <mxCell id="sfe3M8wIAQeGoFs6e5uv-57" value="" style="shape=partialRectangle;html=1;whiteSpace=wrap;connectable=0;fillColor=none;top=0;left=0;bottom=0;right=0;overflow=hidden;pointerEvents=1;strokeColor=inherit;fontSize=16;" vertex="1" parent="sfe3M8wIAQeGoFs6e5uv-56">
          <mxGeometry width="175" height="30" as="geometry">
            <mxRectangle width="175" height="30" as="alternateBounds" />
          </mxGeometry>
        </mxCell>
        <mxCell id="sfe3M8wIAQeGoFs6e5uv-58" value="" style="shape=partialRectangle;html=1;whiteSpace=wrap;connectable=0;fillColor=none;top=0;left=0;bottom=0;right=0;align=left;spacingLeft=6;overflow=hidden;strokeColor=inherit;fontSize=16;" vertex="1" parent="sfe3M8wIAQeGoFs6e5uv-56">
          <mxGeometry x="175" width="175" height="30" as="geometry">
            <mxRectangle width="175" height="30" as="alternateBounds" />
          </mxGeometry>
        </mxCell>
        <mxCell id="sfe3M8wIAQeGoFs6e5uv-59" value="" style="shape=tableRow;horizontal=0;startSize=0;swimlaneHead=0;swimlaneBody=0;top=0;left=0;bottom=0;right=0;collapsible=0;dropTarget=0;fillColor=none;points=[[0,0.5],[1,0.5]];portConstraint=eastwest;strokeColor=inherit;fontSize=16;" vertex="1" parent="sfe3M8wIAQeGoFs6e5uv-55">
          <mxGeometry y="60" width="350" height="30" as="geometry" />
        </mxCell>
        <mxCell id="sfe3M8wIAQeGoFs6e5uv-60" value="Oui" style="shape=partialRectangle;html=1;whiteSpace=wrap;connectable=0;fillColor=none;top=0;left=0;bottom=0;right=0;overflow=hidden;strokeColor=inherit;fontSize=16;" vertex="1" parent="sfe3M8wIAQeGoFs6e5uv-59">
          <mxGeometry width="175" height="30" as="geometry">
            <mxRectangle width="175" height="30" as="alternateBounds" />
          </mxGeometry>
        </mxCell>
        <mxCell id="sfe3M8wIAQeGoFs6e5uv-61" value="&lt;span style=&quot;white-space: pre;&quot;&gt;&#x9;&lt;/span&gt;&lt;span style=&quot;white-space: pre;&quot;&gt;&#x9;&lt;/span&gt;Non" style="shape=partialRectangle;html=1;whiteSpace=wrap;connectable=0;fillColor=none;top=0;left=0;bottom=0;right=0;align=left;spacingLeft=6;overflow=hidden;strokeColor=inherit;fontSize=16;" vertex="1" parent="sfe3M8wIAQeGoFs6e5uv-59">
          <mxGeometry x="175" width="175" height="30" as="geometry">
            <mxRectangle width="175" height="30" as="alternateBounds" />
          </mxGeometry>
        </mxCell>
        <mxCell id="sfe3M8wIAQeGoFs6e5uv-62" value="" style="shape=tableRow;horizontal=0;startSize=0;swimlaneHead=0;swimlaneBody=0;top=0;left=0;bottom=0;right=0;collapsible=0;dropTarget=0;fillColor=none;points=[[0,0.5],[1,0.5]];portConstraint=eastwest;strokeColor=inherit;fontSize=16;" vertex="1" parent="sfe3M8wIAQeGoFs6e5uv-55">
          <mxGeometry y="90" width="350" height="30" as="geometry" />
        </mxCell>
        <mxCell id="sfe3M8wIAQeGoFs6e5uv-63" value="" style="shape=partialRectangle;html=1;whiteSpace=wrap;connectable=0;fillColor=none;top=0;left=0;bottom=0;right=0;overflow=hidden;strokeColor=inherit;fontSize=16;" vertex="1" parent="sfe3M8wIAQeGoFs6e5uv-62">
          <mxGeometry width="175" height="30" as="geometry">
            <mxRectangle width="175" height="30" as="alternateBounds" />
          </mxGeometry>
        </mxCell>
        <mxCell id="sfe3M8wIAQeGoFs6e5uv-64" value="" style="shape=partialRectangle;html=1;whiteSpace=wrap;connectable=0;fillColor=none;top=0;left=0;bottom=0;right=0;align=left;spacingLeft=6;overflow=hidden;strokeColor=inherit;fontSize=16;" vertex="1" parent="sfe3M8wIAQeGoFs6e5uv-62">
          <mxGeometry x="175" width="175" height="30" as="geometry">
            <mxRectangle width="175" height="30" as="alternateBounds" />
          </mxGeometry>
        </mxCell>
        <mxCell id="sfe3M8wIAQeGoFs6e5uv-76" value="" style="endArrow=classic;html=1;rounded=0;entryX=0;entryY=0.5;entryDx=0;entryDy=0;" edge="1" parent="1" source="sfe3M8wIAQeGoFs6e5uv-27" target="sfe3M8wIAQeGoFs6e5uv-65">
          <mxGeometry width="50" height="50" relative="1" as="geometry">
            <mxPoint x="651" y="448" as="sourcePoint" />
            <mxPoint x="650" y="500" as="targetPoint" />
            <Array as="points">
              <mxPoint x="650" y="470" />
            </Array>
          </mxGeometry>
        </mxCell>
        <mxCell id="sfe3M8wIAQeGoFs6e5uv-77" value="" style="group" connectable="0" vertex="1" parent="1">
          <mxGeometry x="640" y="510" width="350" height="180" as="geometry" />
        </mxCell>
        <mxCell id="sfe3M8wIAQeGoFs6e5uv-65" value="" style="triangle;whiteSpace=wrap;html=1;rotation=90;" vertex="1" parent="sfe3M8wIAQeGoFs6e5uv-77">
          <mxGeometry x="145" y="-10" width="60" height="80" as="geometry" />
        </mxCell>
        <mxCell id="sfe3M8wIAQeGoFs6e5uv-66" value="Manque d&#39;ingrédient pour pizza ?" style="shape=table;startSize=30;container=1;collapsible=0;childLayout=tableLayout;fixedRows=1;rowLines=0;fontStyle=0;strokeColor=default;fontSize=16;" vertex="1" parent="sfe3M8wIAQeGoFs6e5uv-77">
          <mxGeometry y="60" width="350" height="120" as="geometry" />
        </mxCell>
        <mxCell id="sfe3M8wIAQeGoFs6e5uv-67" value="" style="shape=tableRow;horizontal=0;startSize=0;swimlaneHead=0;swimlaneBody=0;top=0;left=0;bottom=0;right=0;collapsible=0;dropTarget=0;fillColor=none;points=[[0,0.5],[1,0.5]];portConstraint=eastwest;strokeColor=inherit;fontSize=16;" vertex="1" parent="sfe3M8wIAQeGoFs6e5uv-66">
          <mxGeometry y="30" width="350" height="30" as="geometry" />
        </mxCell>
        <mxCell id="sfe3M8wIAQeGoFs6e5uv-68" value="" style="shape=partialRectangle;html=1;whiteSpace=wrap;connectable=0;fillColor=none;top=0;left=0;bottom=0;right=0;overflow=hidden;pointerEvents=1;strokeColor=inherit;fontSize=16;" vertex="1" parent="sfe3M8wIAQeGoFs6e5uv-67">
          <mxGeometry width="175" height="30" as="geometry">
            <mxRectangle width="175" height="30" as="alternateBounds" />
          </mxGeometry>
        </mxCell>
        <mxCell id="sfe3M8wIAQeGoFs6e5uv-69" value="" style="shape=partialRectangle;html=1;whiteSpace=wrap;connectable=0;fillColor=none;top=0;left=0;bottom=0;right=0;align=left;spacingLeft=6;overflow=hidden;strokeColor=inherit;fontSize=16;" vertex="1" parent="sfe3M8wIAQeGoFs6e5uv-67">
          <mxGeometry x="175" width="175" height="30" as="geometry">
            <mxRectangle width="175" height="30" as="alternateBounds" />
          </mxGeometry>
        </mxCell>
        <mxCell id="sfe3M8wIAQeGoFs6e5uv-70" value="" style="shape=tableRow;horizontal=0;startSize=0;swimlaneHead=0;swimlaneBody=0;top=0;left=0;bottom=0;right=0;collapsible=0;dropTarget=0;fillColor=none;points=[[0,0.5],[1,0.5]];portConstraint=eastwest;strokeColor=inherit;fontSize=16;" vertex="1" parent="sfe3M8wIAQeGoFs6e5uv-66">
          <mxGeometry y="60" width="350" height="30" as="geometry" />
        </mxCell>
        <mxCell id="sfe3M8wIAQeGoFs6e5uv-71" value="Ingrédient pas en stock" style="shape=partialRectangle;html=1;whiteSpace=wrap;connectable=0;fillColor=none;top=0;left=0;bottom=0;right=0;overflow=hidden;strokeColor=inherit;fontSize=16;" vertex="1" parent="sfe3M8wIAQeGoFs6e5uv-70">
          <mxGeometry width="175" height="30" as="geometry">
            <mxRectangle width="175" height="30" as="alternateBounds" />
          </mxGeometry>
        </mxCell>
        <mxCell id="sfe3M8wIAQeGoFs6e5uv-72" value="Ingrédient dispo" style="shape=partialRectangle;html=1;whiteSpace=wrap;connectable=0;fillColor=none;top=0;left=0;bottom=0;right=0;align=left;spacingLeft=6;overflow=hidden;strokeColor=inherit;fontSize=16;" vertex="1" parent="sfe3M8wIAQeGoFs6e5uv-70">
          <mxGeometry x="175" width="175" height="30" as="geometry">
            <mxRectangle width="175" height="30" as="alternateBounds" />
          </mxGeometry>
        </mxCell>
        <mxCell id="sfe3M8wIAQeGoFs6e5uv-73" value="" style="shape=tableRow;horizontal=0;startSize=0;swimlaneHead=0;swimlaneBody=0;top=0;left=0;bottom=0;right=0;collapsible=0;dropTarget=0;fillColor=none;points=[[0,0.5],[1,0.5]];portConstraint=eastwest;strokeColor=inherit;fontSize=16;" vertex="1" parent="sfe3M8wIAQeGoFs6e5uv-66">
          <mxGeometry y="90" width="350" height="30" as="geometry" />
        </mxCell>
        <mxCell id="sfe3M8wIAQeGoFs6e5uv-74" value="" style="shape=partialRectangle;html=1;whiteSpace=wrap;connectable=0;fillColor=none;top=0;left=0;bottom=0;right=0;overflow=hidden;strokeColor=inherit;fontSize=16;" vertex="1" parent="sfe3M8wIAQeGoFs6e5uv-73">
          <mxGeometry width="175" height="30" as="geometry">
            <mxRectangle width="175" height="30" as="alternateBounds" />
          </mxGeometry>
        </mxCell>
        <mxCell id="sfe3M8wIAQeGoFs6e5uv-75" value="" style="shape=partialRectangle;html=1;whiteSpace=wrap;connectable=0;fillColor=none;top=0;left=0;bottom=0;right=0;align=left;spacingLeft=6;overflow=hidden;strokeColor=inherit;fontSize=16;" vertex="1" parent="sfe3M8wIAQeGoFs6e5uv-73">
          <mxGeometry x="175" width="175" height="30" as="geometry">
            <mxRectangle width="175" height="30" as="alternateBounds" />
          </mxGeometry>
        </mxCell>
        <mxCell id="sfe3M8wIAQeGoFs6e5uv-78" value="&lt;div&gt;Indiquer raison&lt;/div&gt;&lt;div&gt;+ envoyer alerte à admin&lt;br&gt;&lt;/div&gt;" style="ellipse;whiteSpace=wrap;html=1;" vertex="1" parent="1">
          <mxGeometry x="670" y="760" width="120" height="80" as="geometry" />
        </mxCell>
        <mxCell id="sfe3M8wIAQeGoFs6e5uv-79" value="" style="endArrow=classic;html=1;rounded=0;exitX=0.251;exitY=1.01;exitDx=0;exitDy=0;entryX=0.5;entryY=0;entryDx=0;entryDy=0;exitPerimeter=0;" edge="1" parent="1" source="sfe3M8wIAQeGoFs6e5uv-73" target="sfe3M8wIAQeGoFs6e5uv-78">
          <mxGeometry width="50" height="50" relative="1" as="geometry">
            <mxPoint x="671" y="720" as="sourcePoint" />
            <mxPoint x="670" y="772" as="targetPoint" />
            <Array as="points" />
          </mxGeometry>
        </mxCell>
        <mxCell id="sfe3M8wIAQeGoFs6e5uv-80" value="Verifier produit" style="ellipse;whiteSpace=wrap;html=1;" vertex="1" parent="1">
          <mxGeometry x="850" y="760" width="120" height="80" as="geometry" />
        </mxCell>
        <mxCell id="sfe3M8wIAQeGoFs6e5uv-81" value="" style="endArrow=classic;html=1;rounded=0;exitX=0.78;exitY=1.033;exitDx=0;exitDy=0;exitPerimeter=0;" edge="1" parent="1" source="sfe3M8wIAQeGoFs6e5uv-73" target="sfe3M8wIAQeGoFs6e5uv-80">
          <mxGeometry width="50" height="50" relative="1" as="geometry">
            <mxPoint x="738" y="710" as="sourcePoint" />
            <mxPoint x="740" y="770" as="targetPoint" />
            <Array as="points" />
          </mxGeometry>
        </mxCell>
        <mxCell id="sfe3M8wIAQeGoFs6e5uv-94" value="" style="endArrow=classic;html=1;rounded=0;exitX=0.5;exitY=1;exitDx=0;exitDy=0;" edge="1" parent="1" source="sfe3M8wIAQeGoFs6e5uv-80" target="sfe3M8wIAQeGoFs6e5uv-83">
          <mxGeometry width="50" height="50" relative="1" as="geometry">
            <mxPoint x="923" y="851" as="sourcePoint" />
            <mxPoint x="921" y="910" as="targetPoint" />
            <Array as="points" />
          </mxGeometry>
        </mxCell>
        <mxCell id="W__4L7vJ_PJ_1O3PGKF6-1" value="Indiquer erreur anormal admin" style="ellipse;whiteSpace=wrap;html=1;" vertex="1" parent="1">
          <mxGeometry x="770" y="1160" width="120" height="80" as="geometry" />
        </mxCell>
        <mxCell id="W__4L7vJ_PJ_1O3PGKF6-2" value="" style="endArrow=classic;html=1;rounded=0;exitX=0.211;exitY=1.033;exitDx=0;exitDy=0;exitPerimeter=0;entryX=0.5;entryY=0;entryDx=0;entryDy=0;" edge="1" parent="1" source="sfe3M8wIAQeGoFs6e5uv-91" target="W__4L7vJ_PJ_1O3PGKF6-1">
          <mxGeometry width="50" height="50" relative="1" as="geometry">
            <mxPoint x="930" y="1100" as="sourcePoint" />
            <mxPoint x="1020" y="1200" as="targetPoint" />
            <Array as="points" />
          </mxGeometry>
        </mxCell>
        <mxCell id="W__4L7vJ_PJ_1O3PGKF6-4" value="&lt;div&gt;Indiquer raison&lt;/div&gt;&lt;div&gt;+ envoyer alerte à admin&lt;br&gt;&lt;/div&gt;" style="ellipse;whiteSpace=wrap;html=1;" vertex="1" parent="1">
          <mxGeometry x="970" y="1160" width="120" height="80" as="geometry" />
        </mxCell>
        <mxCell id="W__4L7vJ_PJ_1O3PGKF6-5" value="" style="endArrow=classic;html=1;rounded=0;exitX=0.777;exitY=1.033;exitDx=0;exitDy=0;exitPerimeter=0;" edge="1" parent="1" source="sfe3M8wIAQeGoFs6e5uv-91" target="W__4L7vJ_PJ_1O3PGKF6-4">
          <mxGeometry width="50" height="50" relative="1" as="geometry">
            <mxPoint x="920" y="850" as="sourcePoint" />
            <mxPoint x="931" y="920" as="targetPoint" />
            <Array as="points" />
          </mxGeometry>
        </mxCell>
        <mxCell id="W__4L7vJ_PJ_1O3PGKF6-6" value="" style="endArrow=classic;html=1;rounded=0;exitX=0.5;exitY=1;exitDx=0;exitDy=0;entryX=0;entryY=0.5;entryDx=0;entryDy=0;" edge="1" parent="1" source="sfe3M8wIAQeGoFs6e5uv-52" target="sfe3M8wIAQeGoFs6e5uv-54">
          <mxGeometry width="50" height="50" relative="1" as="geometry">
            <mxPoint x="310.3" y="859.81" as="sourcePoint" />
            <mxPoint x="316.3" y="917.81" as="targetPoint" />
          </mxGeometry>
        </mxCell>
        <mxCell id="W__4L7vJ_PJ_1O3PGKF6-7" value="" style="endArrow=classic;html=1;rounded=0;exitX=0.747;exitY=1.161;exitDx=0;exitDy=0;exitPerimeter=0;" edge="1" parent="1" target="W__4L7vJ_PJ_1O3PGKF6-8">
          <mxGeometry width="50" height="50" relative="1" as="geometry">
            <mxPoint x="331.4499999999998" y="1128.8299999999997" as="sourcePoint" />
            <mxPoint x="500" y="1130" as="targetPoint" />
            <Array as="points">
              <mxPoint x="330" y="1200" />
              <mxPoint x="500" y="1200" />
            </Array>
          </mxGeometry>
        </mxCell>
        <mxCell id="W__4L7vJ_PJ_1O3PGKF6-8" value="Tant que pas prête" style="ellipse;whiteSpace=wrap;html=1;" vertex="1" parent="1">
          <mxGeometry x="440" y="1040" width="120" height="80" as="geometry" />
        </mxCell>
        <mxCell id="W__4L7vJ_PJ_1O3PGKF6-9" value="" style="endArrow=classic;html=1;rounded=0;exitX=0.5;exitY=0;exitDx=0;exitDy=0;entryX=0.257;entryY=0.082;entryDx=0;entryDy=0;entryPerimeter=0;" edge="1" parent="1" source="W__4L7vJ_PJ_1O3PGKF6-8" target="sfe3M8wIAQeGoFs6e5uv-54">
          <mxGeometry width="50" height="50" relative="1" as="geometry">
            <mxPoint x="640" y="1190" as="sourcePoint" />
            <mxPoint x="500" y="890" as="targetPoint" />
            <Array as="points">
              <mxPoint x="500" y="960" />
            </Array>
          </mxGeometry>
        </mxCell>
        <mxCell id="W__4L7vJ_PJ_1O3PGKF6-10" value="" style="endArrow=classic;html=1;rounded=0;exitX=0.226;exitY=1.082;exitDx=0;exitDy=0;exitPerimeter=0;entryX=0.5;entryY=0;entryDx=0;entryDy=0;" edge="1" parent="1" source="sfe3M8wIAQeGoFs6e5uv-62" target="W__4L7vJ_PJ_1O3PGKF6-11">
          <mxGeometry width="50" height="50" relative="1" as="geometry">
            <mxPoint x="640" y="1260" as="sourcePoint" />
            <mxPoint x="149" y="1240" as="targetPoint" />
          </mxGeometry>
        </mxCell>
        <mxCell id="W__4L7vJ_PJ_1O3PGKF6-11" value="indiquer commande prête" style="ellipse;whiteSpace=wrap;html=1;" vertex="1" parent="1">
          <mxGeometry x="90" y="1169" width="120" height="80" as="geometry" />
        </mxCell>
        <mxCell id="W__4L7vJ_PJ_1O3PGKF6-62" value="" style="group" connectable="0" vertex="1" parent="1">
          <mxGeometry x="750" y="910" width="350" height="180" as="geometry" />
        </mxCell>
        <mxCell id="sfe3M8wIAQeGoFs6e5uv-82" value="" style="group" connectable="0" vertex="1" parent="W__4L7vJ_PJ_1O3PGKF6-62">
          <mxGeometry width="350" height="180" as="geometry" />
        </mxCell>
        <mxCell id="sfe3M8wIAQeGoFs6e5uv-83" value="" style="triangle;whiteSpace=wrap;html=1;rotation=90;" vertex="1" parent="sfe3M8wIAQeGoFs6e5uv-82">
          <mxGeometry x="145" y="-10" width="60" height="80" as="geometry" />
        </mxCell>
        <mxCell id="sfe3M8wIAQeGoFs6e5uv-84" value="Autre produit en stock ?" style="shape=table;startSize=30;container=1;collapsible=0;childLayout=tableLayout;fixedRows=1;rowLines=0;fontStyle=0;strokeColor=default;fontSize=16;" vertex="1" parent="W__4L7vJ_PJ_1O3PGKF6-62">
          <mxGeometry x="-1" y="60" width="350" height="120" as="geometry" />
        </mxCell>
        <mxCell id="sfe3M8wIAQeGoFs6e5uv-85" value="" style="shape=tableRow;horizontal=0;startSize=0;swimlaneHead=0;swimlaneBody=0;top=0;left=0;bottom=0;right=0;collapsible=0;dropTarget=0;fillColor=none;points=[[0,0.5],[1,0.5]];portConstraint=eastwest;strokeColor=inherit;fontSize=16;" vertex="1" parent="sfe3M8wIAQeGoFs6e5uv-84">
          <mxGeometry y="30" width="350" height="30" as="geometry" />
        </mxCell>
        <mxCell id="sfe3M8wIAQeGoFs6e5uv-86" value="" style="shape=partialRectangle;html=1;whiteSpace=wrap;connectable=0;fillColor=none;top=0;left=0;bottom=0;right=0;overflow=hidden;pointerEvents=1;strokeColor=inherit;fontSize=16;" vertex="1" parent="sfe3M8wIAQeGoFs6e5uv-85">
          <mxGeometry width="175" height="30" as="geometry">
            <mxRectangle width="175" height="30" as="alternateBounds" />
          </mxGeometry>
        </mxCell>
        <mxCell id="sfe3M8wIAQeGoFs6e5uv-87" value="" style="shape=partialRectangle;html=1;whiteSpace=wrap;connectable=0;fillColor=none;top=0;left=0;bottom=0;right=0;align=left;spacingLeft=6;overflow=hidden;strokeColor=inherit;fontSize=16;" vertex="1" parent="sfe3M8wIAQeGoFs6e5uv-85">
          <mxGeometry x="175" width="175" height="30" as="geometry">
            <mxRectangle width="175" height="30" as="alternateBounds" />
          </mxGeometry>
        </mxCell>
        <mxCell id="sfe3M8wIAQeGoFs6e5uv-88" value="" style="shape=tableRow;horizontal=0;startSize=0;swimlaneHead=0;swimlaneBody=0;top=0;left=0;bottom=0;right=0;collapsible=0;dropTarget=0;fillColor=none;points=[[0,0.5],[1,0.5]];portConstraint=eastwest;strokeColor=inherit;fontSize=16;" vertex="1" parent="sfe3M8wIAQeGoFs6e5uv-84">
          <mxGeometry y="60" width="350" height="30" as="geometry" />
        </mxCell>
        <mxCell id="sfe3M8wIAQeGoFs6e5uv-89" value="Produit en stock" style="shape=partialRectangle;html=1;whiteSpace=wrap;connectable=0;fillColor=none;top=0;left=0;bottom=0;right=0;overflow=hidden;strokeColor=inherit;fontSize=16;" vertex="1" parent="sfe3M8wIAQeGoFs6e5uv-88">
          <mxGeometry width="175" height="30" as="geometry">
            <mxRectangle width="175" height="30" as="alternateBounds" />
          </mxGeometry>
        </mxCell>
        <mxCell id="sfe3M8wIAQeGoFs6e5uv-90" value="Produit pas en stock" style="shape=partialRectangle;html=1;whiteSpace=wrap;connectable=0;fillColor=none;top=0;left=0;bottom=0;right=0;align=left;spacingLeft=6;overflow=hidden;strokeColor=inherit;fontSize=16;" vertex="1" parent="sfe3M8wIAQeGoFs6e5uv-88">
          <mxGeometry x="175" width="175" height="30" as="geometry">
            <mxRectangle width="175" height="30" as="alternateBounds" />
          </mxGeometry>
        </mxCell>
        <mxCell id="sfe3M8wIAQeGoFs6e5uv-91" value="" style="shape=tableRow;horizontal=0;startSize=0;swimlaneHead=0;swimlaneBody=0;top=0;left=0;bottom=0;right=0;collapsible=0;dropTarget=0;fillColor=none;points=[[0,0.5],[1,0.5]];portConstraint=eastwest;strokeColor=inherit;fontSize=16;" vertex="1" parent="sfe3M8wIAQeGoFs6e5uv-84">
          <mxGeometry y="90" width="350" height="30" as="geometry" />
        </mxCell>
        <mxCell id="sfe3M8wIAQeGoFs6e5uv-92" value="" style="shape=partialRectangle;html=1;whiteSpace=wrap;connectable=0;fillColor=none;top=0;left=0;bottom=0;right=0;overflow=hidden;strokeColor=inherit;fontSize=16;" vertex="1" parent="sfe3M8wIAQeGoFs6e5uv-91">
          <mxGeometry width="175" height="30" as="geometry">
            <mxRectangle width="175" height="30" as="alternateBounds" />
          </mxGeometry>
        </mxCell>
        <mxCell id="sfe3M8wIAQeGoFs6e5uv-93" value="" style="shape=partialRectangle;html=1;whiteSpace=wrap;connectable=0;fillColor=none;top=0;left=0;bottom=0;right=0;align=left;spacingLeft=6;overflow=hidden;strokeColor=inherit;fontSize=16;" vertex="1" parent="sfe3M8wIAQeGoFs6e5uv-91">
          <mxGeometry x="175" width="175" height="30" as="geometry">
            <mxRectangle width="175" height="30" as="alternateBounds" />
          </mxGeometry>
        </mxCell>
        <mxCell id="W__4L7vJ_PJ_1O3PGKF6-78" value="" style="group" connectable="0" vertex="1" parent="1">
          <mxGeometry x="-25" y="1290" width="350" height="180" as="geometry" />
        </mxCell>
        <mxCell id="W__4L7vJ_PJ_1O3PGKF6-79" value="" style="group" connectable="0" vertex="1" parent="W__4L7vJ_PJ_1O3PGKF6-78">
          <mxGeometry width="350" height="180" as="geometry" />
        </mxCell>
        <mxCell id="W__4L7vJ_PJ_1O3PGKF6-80" value="" style="triangle;whiteSpace=wrap;html=1;rotation=90;" vertex="1" parent="W__4L7vJ_PJ_1O3PGKF6-79">
          <mxGeometry x="145" y="-10" width="60" height="80" as="geometry" />
        </mxCell>
        <mxCell id="W__4L7vJ_PJ_1O3PGKF6-81" value="Sur place ?" style="shape=table;startSize=30;container=1;collapsible=0;childLayout=tableLayout;fixedRows=1;rowLines=0;fontStyle=0;strokeColor=default;fontSize=16;" vertex="1" parent="W__4L7vJ_PJ_1O3PGKF6-79">
          <mxGeometry y="60" width="350" height="120" as="geometry" />
        </mxCell>
        <mxCell id="W__4L7vJ_PJ_1O3PGKF6-82" value="" style="shape=tableRow;horizontal=0;startSize=0;swimlaneHead=0;swimlaneBody=0;top=0;left=0;bottom=0;right=0;collapsible=0;dropTarget=0;fillColor=none;points=[[0,0.5],[1,0.5]];portConstraint=eastwest;strokeColor=inherit;fontSize=16;" vertex="1" parent="W__4L7vJ_PJ_1O3PGKF6-81">
          <mxGeometry y="30" width="350" height="30" as="geometry" />
        </mxCell>
        <mxCell id="W__4L7vJ_PJ_1O3PGKF6-83" value="" style="shape=partialRectangle;html=1;whiteSpace=wrap;connectable=0;fillColor=none;top=0;left=0;bottom=0;right=0;overflow=hidden;pointerEvents=1;strokeColor=inherit;fontSize=16;" vertex="1" parent="W__4L7vJ_PJ_1O3PGKF6-82">
          <mxGeometry width="175" height="30" as="geometry">
            <mxRectangle width="175" height="30" as="alternateBounds" />
          </mxGeometry>
        </mxCell>
        <mxCell id="W__4L7vJ_PJ_1O3PGKF6-84" value="" style="shape=partialRectangle;html=1;whiteSpace=wrap;connectable=0;fillColor=none;top=0;left=0;bottom=0;right=0;align=left;spacingLeft=6;overflow=hidden;strokeColor=inherit;fontSize=16;" vertex="1" parent="W__4L7vJ_PJ_1O3PGKF6-82">
          <mxGeometry x="175" width="175" height="30" as="geometry">
            <mxRectangle width="175" height="30" as="alternateBounds" />
          </mxGeometry>
        </mxCell>
        <mxCell id="W__4L7vJ_PJ_1O3PGKF6-85" value="" style="shape=tableRow;horizontal=0;startSize=0;swimlaneHead=0;swimlaneBody=0;top=0;left=0;bottom=0;right=0;collapsible=0;dropTarget=0;fillColor=none;points=[[0,0.5],[1,0.5]];portConstraint=eastwest;strokeColor=inherit;fontSize=16;" vertex="1" parent="W__4L7vJ_PJ_1O3PGKF6-81">
          <mxGeometry y="60" width="350" height="30" as="geometry" />
        </mxCell>
        <mxCell id="W__4L7vJ_PJ_1O3PGKF6-86" value="Oui" style="shape=partialRectangle;html=1;whiteSpace=wrap;connectable=0;fillColor=none;top=0;left=0;bottom=0;right=0;overflow=hidden;strokeColor=inherit;fontSize=16;" vertex="1" parent="W__4L7vJ_PJ_1O3PGKF6-85">
          <mxGeometry width="175" height="30" as="geometry">
            <mxRectangle width="175" height="30" as="alternateBounds" />
          </mxGeometry>
        </mxCell>
        <mxCell id="W__4L7vJ_PJ_1O3PGKF6-87" value="&lt;span style=&quot;white-space: pre;&quot;&gt;&#x9;&lt;/span&gt;&lt;span style=&quot;white-space: pre;&quot;&gt;&#x9;&lt;/span&gt;Non" style="shape=partialRectangle;html=1;whiteSpace=wrap;connectable=0;fillColor=none;top=0;left=0;bottom=0;right=0;align=left;spacingLeft=6;overflow=hidden;strokeColor=inherit;fontSize=16;" vertex="1" parent="W__4L7vJ_PJ_1O3PGKF6-85">
          <mxGeometry x="175" width="175" height="30" as="geometry">
            <mxRectangle width="175" height="30" as="alternateBounds" />
          </mxGeometry>
        </mxCell>
        <mxCell id="W__4L7vJ_PJ_1O3PGKF6-88" value="" style="shape=tableRow;horizontal=0;startSize=0;swimlaneHead=0;swimlaneBody=0;top=0;left=0;bottom=0;right=0;collapsible=0;dropTarget=0;fillColor=none;points=[[0,0.5],[1,0.5]];portConstraint=eastwest;strokeColor=inherit;fontSize=16;" vertex="1" parent="W__4L7vJ_PJ_1O3PGKF6-81">
          <mxGeometry y="90" width="350" height="30" as="geometry" />
        </mxCell>
        <mxCell id="W__4L7vJ_PJ_1O3PGKF6-89" value="" style="shape=partialRectangle;html=1;whiteSpace=wrap;connectable=0;fillColor=none;top=0;left=0;bottom=0;right=0;overflow=hidden;strokeColor=inherit;fontSize=16;" vertex="1" parent="W__4L7vJ_PJ_1O3PGKF6-88">
          <mxGeometry width="175" height="30" as="geometry">
            <mxRectangle width="175" height="30" as="alternateBounds" />
          </mxGeometry>
        </mxCell>
        <mxCell id="W__4L7vJ_PJ_1O3PGKF6-90" value="" style="shape=partialRectangle;html=1;whiteSpace=wrap;connectable=0;fillColor=none;top=0;left=0;bottom=0;right=0;align=left;spacingLeft=6;overflow=hidden;strokeColor=inherit;fontSize=16;" vertex="1" parent="W__4L7vJ_PJ_1O3PGKF6-88">
          <mxGeometry x="175" width="175" height="30" as="geometry">
            <mxRectangle width="175" height="30" as="alternateBounds" />
          </mxGeometry>
        </mxCell>
        <mxCell id="W__4L7vJ_PJ_1O3PGKF6-91" value="" style="endArrow=classic;html=1;rounded=0;exitX=0.5;exitY=1;exitDx=0;exitDy=0;" edge="1" parent="1" source="W__4L7vJ_PJ_1O3PGKF6-11" target="W__4L7vJ_PJ_1O3PGKF6-80">
          <mxGeometry width="50" height="50" relative="1" as="geometry">
            <mxPoint x="149.5" y="1268" as="sourcePoint" />
            <mxPoint x="150.5" y="1310" as="targetPoint" />
          </mxGeometry>
        </mxCell>
        <mxCell id="W__4L7vJ_PJ_1O3PGKF6-92" value="Preparer à la livraison" style="ellipse;whiteSpace=wrap;html=1;" vertex="1" parent="1">
          <mxGeometry x="264" y="1540" width="120" height="80" as="geometry" />
        </mxCell>
        <mxCell id="W__4L7vJ_PJ_1O3PGKF6-93" value="" style="endArrow=classic;html=1;rounded=0;entryX=0.5;entryY=0;entryDx=0;entryDy=0;" edge="1" parent="1" target="W__4L7vJ_PJ_1O3PGKF6-92">
          <mxGeometry width="50" height="50" relative="1" as="geometry">
            <mxPoint x="246" y="1470" as="sourcePoint" />
            <mxPoint x="245.5" y="1572" as="targetPoint" />
          </mxGeometry>
        </mxCell>
        <mxCell id="W__4L7vJ_PJ_1O3PGKF6-94" value="Servir" style="ellipse;whiteSpace=wrap;html=1;" vertex="1" parent="1">
          <mxGeometry x="-100" y="1540" width="120" height="80" as="geometry" />
        </mxCell>
        <mxCell id="W__4L7vJ_PJ_1O3PGKF6-95" value="" style="endArrow=classic;html=1;rounded=0;exitX=0.222;exitY=1.1;exitDx=0;exitDy=0;exitPerimeter=0;entryX=0.5;entryY=0;entryDx=0;entryDy=0;" edge="1" parent="1" source="W__4L7vJ_PJ_1O3PGKF6-88" target="W__4L7vJ_PJ_1O3PGKF6-94">
          <mxGeometry width="50" height="50" relative="1" as="geometry">
            <mxPoint x="100" y="1550" as="sourcePoint" />
            <mxPoint x="100" y="1591" as="targetPoint" />
          </mxGeometry>
        </mxCell>
        <mxCell id="W__4L7vJ_PJ_1O3PGKF6-103" value="" style="group" connectable="0" vertex="1" parent="1">
          <mxGeometry x="157.5" y="1690" width="350" height="180" as="geometry" />
        </mxCell>
        <mxCell id="W__4L7vJ_PJ_1O3PGKF6-104" value="" style="triangle;whiteSpace=wrap;html=1;rotation=90;" vertex="1" parent="W__4L7vJ_PJ_1O3PGKF6-103">
          <mxGeometry x="145" y="-10" width="60" height="80" as="geometry" />
        </mxCell>
        <mxCell id="W__4L7vJ_PJ_1O3PGKF6-105" value="Livreur disponible ?" style="shape=table;startSize=30;container=1;collapsible=0;childLayout=tableLayout;fixedRows=1;rowLines=0;fontStyle=0;strokeColor=default;fontSize=16;" vertex="1" parent="W__4L7vJ_PJ_1O3PGKF6-103">
          <mxGeometry y="60" width="350" height="120" as="geometry" />
        </mxCell>
        <mxCell id="W__4L7vJ_PJ_1O3PGKF6-106" value="" style="shape=tableRow;horizontal=0;startSize=0;swimlaneHead=0;swimlaneBody=0;top=0;left=0;bottom=0;right=0;collapsible=0;dropTarget=0;fillColor=none;points=[[0,0.5],[1,0.5]];portConstraint=eastwest;strokeColor=inherit;fontSize=16;" vertex="1" parent="W__4L7vJ_PJ_1O3PGKF6-105">
          <mxGeometry y="30" width="350" height="30" as="geometry" />
        </mxCell>
        <mxCell id="W__4L7vJ_PJ_1O3PGKF6-107" value="" style="shape=partialRectangle;html=1;whiteSpace=wrap;connectable=0;fillColor=none;top=0;left=0;bottom=0;right=0;overflow=hidden;pointerEvents=1;strokeColor=inherit;fontSize=16;" vertex="1" parent="W__4L7vJ_PJ_1O3PGKF6-106">
          <mxGeometry width="175" height="30" as="geometry">
            <mxRectangle width="175" height="30" as="alternateBounds" />
          </mxGeometry>
        </mxCell>
        <mxCell id="W__4L7vJ_PJ_1O3PGKF6-108" value="" style="shape=partialRectangle;html=1;whiteSpace=wrap;connectable=0;fillColor=none;top=0;left=0;bottom=0;right=0;align=left;spacingLeft=6;overflow=hidden;strokeColor=inherit;fontSize=16;" vertex="1" parent="W__4L7vJ_PJ_1O3PGKF6-106">
          <mxGeometry x="175" width="175" height="30" as="geometry">
            <mxRectangle width="175" height="30" as="alternateBounds" />
          </mxGeometry>
        </mxCell>
        <mxCell id="W__4L7vJ_PJ_1O3PGKF6-109" value="" style="shape=tableRow;horizontal=0;startSize=0;swimlaneHead=0;swimlaneBody=0;top=0;left=0;bottom=0;right=0;collapsible=0;dropTarget=0;fillColor=none;points=[[0,0.5],[1,0.5]];portConstraint=eastwest;strokeColor=inherit;fontSize=16;" vertex="1" parent="W__4L7vJ_PJ_1O3PGKF6-105">
          <mxGeometry y="60" width="350" height="30" as="geometry" />
        </mxCell>
        <mxCell id="W__4L7vJ_PJ_1O3PGKF6-110" value="Livreur disponible" style="shape=partialRectangle;html=1;whiteSpace=wrap;connectable=0;fillColor=none;top=0;left=0;bottom=0;right=0;overflow=hidden;strokeColor=inherit;fontSize=16;" vertex="1" parent="W__4L7vJ_PJ_1O3PGKF6-109">
          <mxGeometry width="175" height="30" as="geometry">
            <mxRectangle width="175" height="30" as="alternateBounds" />
          </mxGeometry>
        </mxCell>
        <mxCell id="W__4L7vJ_PJ_1O3PGKF6-111" value="Livreur indisponible" style="shape=partialRectangle;html=1;whiteSpace=wrap;connectable=0;fillColor=none;top=0;left=0;bottom=0;right=0;align=left;spacingLeft=6;overflow=hidden;strokeColor=inherit;fontSize=16;" vertex="1" parent="W__4L7vJ_PJ_1O3PGKF6-109">
          <mxGeometry x="175" width="175" height="30" as="geometry">
            <mxRectangle width="175" height="30" as="alternateBounds" />
          </mxGeometry>
        </mxCell>
        <mxCell id="W__4L7vJ_PJ_1O3PGKF6-112" value="" style="shape=tableRow;horizontal=0;startSize=0;swimlaneHead=0;swimlaneBody=0;top=0;left=0;bottom=0;right=0;collapsible=0;dropTarget=0;fillColor=none;points=[[0,0.5],[1,0.5]];portConstraint=eastwest;strokeColor=inherit;fontSize=16;" vertex="1" parent="W__4L7vJ_PJ_1O3PGKF6-105">
          <mxGeometry y="90" width="350" height="30" as="geometry" />
        </mxCell>
        <mxCell id="W__4L7vJ_PJ_1O3PGKF6-113" value="" style="shape=partialRectangle;html=1;whiteSpace=wrap;connectable=0;fillColor=none;top=0;left=0;bottom=0;right=0;overflow=hidden;strokeColor=inherit;fontSize=16;" vertex="1" parent="W__4L7vJ_PJ_1O3PGKF6-112">
          <mxGeometry width="175" height="30" as="geometry">
            <mxRectangle width="175" height="30" as="alternateBounds" />
          </mxGeometry>
        </mxCell>
        <mxCell id="W__4L7vJ_PJ_1O3PGKF6-114" value="" style="shape=partialRectangle;html=1;whiteSpace=wrap;connectable=0;fillColor=none;top=0;left=0;bottom=0;right=0;align=left;spacingLeft=6;overflow=hidden;strokeColor=inherit;fontSize=16;" vertex="1" parent="W__4L7vJ_PJ_1O3PGKF6-112">
          <mxGeometry x="175" width="175" height="30" as="geometry">
            <mxRectangle width="175" height="30" as="alternateBounds" />
          </mxGeometry>
        </mxCell>
        <mxCell id="W__4L7vJ_PJ_1O3PGKF6-115" value="" style="endArrow=classic;html=1;rounded=0;entryX=0;entryY=0.5;entryDx=0;entryDy=0;exitX=0.558;exitY=0.975;exitDx=0;exitDy=0;exitPerimeter=0;" edge="1" parent="1" source="W__4L7vJ_PJ_1O3PGKF6-92" target="W__4L7vJ_PJ_1O3PGKF6-104">
          <mxGeometry width="50" height="50" relative="1" as="geometry">
            <mxPoint x="460" y="1620" as="sourcePoint" />
            <mxPoint x="538" y="1690" as="targetPoint" />
          </mxGeometry>
        </mxCell>
        <mxCell id="W__4L7vJ_PJ_1O3PGKF6-116" value="Attendre un livreur" style="ellipse;whiteSpace=wrap;html=1;" vertex="1" parent="1">
          <mxGeometry x="413" y="1940" width="120" height="80" as="geometry" />
        </mxCell>
        <mxCell id="W__4L7vJ_PJ_1O3PGKF6-117" value="" style="endArrow=classic;html=1;rounded=0;entryX=0.5;entryY=0;entryDx=0;entryDy=0;exitX=0.789;exitY=0.989;exitDx=0;exitDy=0;exitPerimeter=0;" edge="1" parent="1" source="W__4L7vJ_PJ_1O3PGKF6-112" target="W__4L7vJ_PJ_1O3PGKF6-116">
          <mxGeometry width="50" height="50" relative="1" as="geometry">
            <mxPoint x="341" y="1628" as="sourcePoint" />
            <mxPoint x="343" y="1700" as="targetPoint" />
          </mxGeometry>
        </mxCell>
        <mxCell id="W__4L7vJ_PJ_1O3PGKF6-118" value="Livreur récupère adresse et commande" style="ellipse;whiteSpace=wrap;html=1;" vertex="1" parent="1">
          <mxGeometry x="142" y="1940" width="120" height="80" as="geometry" />
        </mxCell>
        <mxCell id="W__4L7vJ_PJ_1O3PGKF6-119" value="" style="endArrow=classic;html=1;rounded=0;exitX=0.246;exitY=0.989;exitDx=0;exitDy=0;exitPerimeter=0;" edge="1" parent="1" source="W__4L7vJ_PJ_1O3PGKF6-112" target="W__4L7vJ_PJ_1O3PGKF6-118">
          <mxGeometry width="50" height="50" relative="1" as="geometry">
            <mxPoint x="444" y="1880" as="sourcePoint" />
            <mxPoint x="483" y="1950" as="targetPoint" />
          </mxGeometry>
        </mxCell>
        <mxCell id="W__4L7vJ_PJ_1O3PGKF6-133" value="" style="group" connectable="0" vertex="1" parent="1">
          <mxGeometry x="22" y="2060" width="350" height="180" as="geometry" />
        </mxCell>
        <mxCell id="W__4L7vJ_PJ_1O3PGKF6-134" value="" style="triangle;whiteSpace=wrap;html=1;rotation=90;" vertex="1" parent="W__4L7vJ_PJ_1O3PGKF6-133">
          <mxGeometry x="145" y="-10" width="60" height="80" as="geometry" />
        </mxCell>
        <mxCell id="W__4L7vJ_PJ_1O3PGKF6-135" value="Retard sur la livraison ?" style="shape=table;startSize=30;container=1;collapsible=0;childLayout=tableLayout;fixedRows=1;rowLines=0;fontStyle=0;strokeColor=default;fontSize=16;" vertex="1" parent="1">
          <mxGeometry x="20" y="2120" width="350" height="120" as="geometry" />
        </mxCell>
        <mxCell id="W__4L7vJ_PJ_1O3PGKF6-136" value="" style="shape=tableRow;horizontal=0;startSize=0;swimlaneHead=0;swimlaneBody=0;top=0;left=0;bottom=0;right=0;collapsible=0;dropTarget=0;fillColor=none;points=[[0,0.5],[1,0.5]];portConstraint=eastwest;strokeColor=inherit;fontSize=16;" vertex="1" parent="W__4L7vJ_PJ_1O3PGKF6-135">
          <mxGeometry y="30" width="350" height="30" as="geometry" />
        </mxCell>
        <mxCell id="W__4L7vJ_PJ_1O3PGKF6-137" value="" style="shape=partialRectangle;html=1;whiteSpace=wrap;connectable=0;fillColor=none;top=0;left=0;bottom=0;right=0;overflow=hidden;pointerEvents=1;strokeColor=inherit;fontSize=16;" vertex="1" parent="W__4L7vJ_PJ_1O3PGKF6-136">
          <mxGeometry width="175" height="30" as="geometry">
            <mxRectangle width="175" height="30" as="alternateBounds" />
          </mxGeometry>
        </mxCell>
        <mxCell id="W__4L7vJ_PJ_1O3PGKF6-138" value="" style="shape=partialRectangle;html=1;whiteSpace=wrap;connectable=0;fillColor=none;top=0;left=0;bottom=0;right=0;align=left;spacingLeft=6;overflow=hidden;strokeColor=inherit;fontSize=16;" vertex="1" parent="W__4L7vJ_PJ_1O3PGKF6-136">
          <mxGeometry x="175" width="175" height="30" as="geometry">
            <mxRectangle width="175" height="30" as="alternateBounds" />
          </mxGeometry>
        </mxCell>
        <mxCell id="W__4L7vJ_PJ_1O3PGKF6-139" value="" style="shape=tableRow;horizontal=0;startSize=0;swimlaneHead=0;swimlaneBody=0;top=0;left=0;bottom=0;right=0;collapsible=0;dropTarget=0;fillColor=none;points=[[0,0.5],[1,0.5]];portConstraint=eastwest;strokeColor=inherit;fontSize=16;" vertex="1" parent="W__4L7vJ_PJ_1O3PGKF6-135">
          <mxGeometry y="60" width="350" height="30" as="geometry" />
        </mxCell>
        <mxCell id="W__4L7vJ_PJ_1O3PGKF6-140" value="Livreur en retard" style="shape=partialRectangle;html=1;whiteSpace=wrap;connectable=0;fillColor=none;top=0;left=0;bottom=0;right=0;overflow=hidden;strokeColor=inherit;fontSize=16;" vertex="1" parent="W__4L7vJ_PJ_1O3PGKF6-139">
          <mxGeometry width="175" height="30" as="geometry">
            <mxRectangle width="175" height="30" as="alternateBounds" />
          </mxGeometry>
        </mxCell>
        <mxCell id="W__4L7vJ_PJ_1O3PGKF6-141" value="Livreur à l&#39;heure" style="shape=partialRectangle;html=1;whiteSpace=wrap;connectable=0;fillColor=none;top=0;left=0;bottom=0;right=0;align=left;spacingLeft=6;overflow=hidden;strokeColor=inherit;fontSize=16;" vertex="1" parent="W__4L7vJ_PJ_1O3PGKF6-139">
          <mxGeometry x="175" width="175" height="30" as="geometry">
            <mxRectangle width="175" height="30" as="alternateBounds" />
          </mxGeometry>
        </mxCell>
        <mxCell id="W__4L7vJ_PJ_1O3PGKF6-142" value="" style="shape=tableRow;horizontal=0;startSize=0;swimlaneHead=0;swimlaneBody=0;top=0;left=0;bottom=0;right=0;collapsible=0;dropTarget=0;fillColor=none;points=[[0,0.5],[1,0.5]];portConstraint=eastwest;strokeColor=inherit;fontSize=16;" vertex="1" parent="W__4L7vJ_PJ_1O3PGKF6-135">
          <mxGeometry y="90" width="350" height="30" as="geometry" />
        </mxCell>
        <mxCell id="W__4L7vJ_PJ_1O3PGKF6-143" value="" style="shape=partialRectangle;html=1;whiteSpace=wrap;connectable=0;fillColor=none;top=0;left=0;bottom=0;right=0;overflow=hidden;strokeColor=inherit;fontSize=16;" vertex="1" parent="W__4L7vJ_PJ_1O3PGKF6-142">
          <mxGeometry width="175" height="30" as="geometry">
            <mxRectangle width="175" height="30" as="alternateBounds" />
          </mxGeometry>
        </mxCell>
        <mxCell id="W__4L7vJ_PJ_1O3PGKF6-144" value="" style="shape=partialRectangle;html=1;whiteSpace=wrap;connectable=0;fillColor=none;top=0;left=0;bottom=0;right=0;align=left;spacingLeft=6;overflow=hidden;strokeColor=inherit;fontSize=16;" vertex="1" parent="W__4L7vJ_PJ_1O3PGKF6-142">
          <mxGeometry x="175" width="175" height="30" as="geometry">
            <mxRectangle width="175" height="30" as="alternateBounds" />
          </mxGeometry>
        </mxCell>
        <mxCell id="W__4L7vJ_PJ_1O3PGKF6-145" value="" style="endArrow=classic;html=1;rounded=0;exitX=0.5;exitY=1;exitDx=0;exitDy=0;entryX=0;entryY=0.5;entryDx=0;entryDy=0;" edge="1" parent="1" source="W__4L7vJ_PJ_1O3PGKF6-118" target="W__4L7vJ_PJ_1O3PGKF6-134">
          <mxGeometry width="50" height="50" relative="1" as="geometry">
            <mxPoint x="254" y="1880" as="sourcePoint" />
            <mxPoint x="226" y="1951" as="targetPoint" />
          </mxGeometry>
        </mxCell>
        <mxCell id="W__4L7vJ_PJ_1O3PGKF6-146" value="Indiquer livraison terminé" style="ellipse;whiteSpace=wrap;html=1;" vertex="1" parent="1">
          <mxGeometry x="234" y="2338" width="120" height="80" as="geometry" />
        </mxCell>
        <mxCell id="W__4L7vJ_PJ_1O3PGKF6-147" value="" style="endArrow=classic;html=1;rounded=0;exitX=0.77;exitY=1.072;exitDx=0;exitDy=0;entryX=0.5;entryY=0;entryDx=0;entryDy=0;exitPerimeter=0;" edge="1" parent="1" source="W__4L7vJ_PJ_1O3PGKF6-142" target="W__4L7vJ_PJ_1O3PGKF6-146">
          <mxGeometry width="50" height="50" relative="1" as="geometry">
            <mxPoint x="212" y="2030" as="sourcePoint" />
            <mxPoint x="207" y="2070" as="targetPoint" />
          </mxGeometry>
        </mxCell>
        <mxCell id="W__4L7vJ_PJ_1O3PGKF6-148" value="&lt;div&gt;Indiquer livraison en retard + Ajouter bon de réduction de 50%&lt;/div&gt;&lt;div&gt;au client&lt;br&gt;&lt;/div&gt;" style="ellipse;whiteSpace=wrap;html=1;" vertex="1" parent="1">
          <mxGeometry y="2310" width="190" height="130" as="geometry" />
        </mxCell>
        <mxCell id="W__4L7vJ_PJ_1O3PGKF6-150" value="" style="endArrow=classic;html=1;rounded=0;exitX=0.255;exitY=0.989;exitDx=0;exitDy=0;exitPerimeter=0;" edge="1" parent="1" source="W__4L7vJ_PJ_1O3PGKF6-142" target="W__4L7vJ_PJ_1O3PGKF6-148">
          <mxGeometry width="50" height="50" relative="1" as="geometry">
            <mxPoint x="147" y="2290" as="sourcePoint" />
            <mxPoint x="142" y="2330" as="targetPoint" />
          </mxGeometry>
        </mxCell>
      </root>
    </mxGraphModel>
  </diagram>
</mxfile>
